<?xml version="1.0" encoding="UTF-8"?>
<svg xmlns="http://www.w3.org/2000/svg" xmlns:xlink="http://www.w3.org/1999/xlink" width="20pt" height="21pt" viewBox="0 0 20 21" version="1.1">
<g id="surface1">
<path style=" stroke:none;fill-rule:evenodd;fill:rgb(80%,79.607843%,79.607843%);fill-opacity:1;" d="M 9.386719 0.0234375 C 9.292969 0.0351562 9.21875 0.0507812 9.21875 0.0585938 C 9.21875 0.0703125 9.199219 0.078125 9.175781 0.078125 C 9.128906 0.078125 8.9375 0.136719 8.921875 0.15625 C 8.914062 0.164062 8.875 0.171875 8.835938 0.179688 C 8.792969 0.1875 8.761719 0.203125 8.761719 0.210938 C 8.761719 0.21875 8.734375 0.234375 8.699219 0.242188 C 8.667969 0.246094 8.640625 0.261719 8.640625 0.269531 C 8.640625 0.28125 8.617188 0.289062 8.589844 0.289062 C 8.5625 0.289062 8.535156 0.300781 8.527344 0.316406 C 8.519531 0.332031 8.507812 0.347656 8.496094 0.347656 C 8.464844 0.347656 8.320312 0.414062 8.320312 0.429688 C 8.320312 0.4375 8.304688 0.441406 8.289062 0.441406 C 8.273438 0.441406 8.253906 0.457031 8.246094 0.472656 C 8.242188 0.488281 8.226562 0.5 8.214844 0.5 C 8.179688 0.5 8.019531 0.578125 8.019531 0.597656 C 8.019531 0.605469 7.992188 0.621094 7.960938 0.625 C 7.925781 0.632812 7.898438 0.644531 7.898438 0.65625 C 7.898438 0.664062 7.878906 0.675781 7.851562 0.683594 C 7.824219 0.6875 7.800781 0.703125 7.800781 0.714844 C 7.800781 0.722656 7.785156 0.730469 7.769531 0.730469 C 7.753906 0.730469 7.738281 0.738281 7.738281 0.75 C 7.738281 0.757812 7.714844 0.773438 7.679688 0.78125 C 7.648438 0.789062 7.621094 0.800781 7.621094 0.808594 C 7.621094 0.820312 7.597656 0.832031 7.570312 0.839844 C 7.542969 0.847656 7.519531 0.859375 7.519531 0.867188 C 7.519531 0.875 7.492188 0.890625 7.460938 0.894531 C 7.425781 0.902344 7.398438 0.914062 7.398438 0.921875 C 7.398438 0.929688 7.339844 0.964844 7.269531 1 C 7.199219 1.039062 7.140625 1.074219 7.140625 1.082031 C 7.140625 1.089844 7.113281 1.101562 7.078125 1.109375 C 7.046875 1.113281 7.019531 1.128906 7.019531 1.136719 C 7.019531 1.148438 7.007812 1.15625 6.988281 1.15625 C 6.972656 1.15625 6.953125 1.167969 6.945312 1.183594 C 6.941406 1.199219 6.917969 1.214844 6.902344 1.214844 C 6.882812 1.214844 6.84375 1.230469 6.816406 1.253906 C 6.785156 1.273438 6.753906 1.289062 6.742188 1.289062 C 6.730469 1.289062 6.71875 1.300781 6.71875 1.308594 C 6.71875 1.320312 6.707031 1.328125 6.691406 1.328125 C 6.671875 1.328125 6.660156 1.339844 6.660156 1.351562 C 6.660156 1.359375 6.652344 1.367188 6.644531 1.359375 C 6.632812 1.355469 6.609375 1.367188 6.585938 1.386719 C 6.5625 1.40625 6.519531 1.429688 6.492188 1.4375 C 6.464844 1.445312 6.441406 1.457031 6.441406 1.464844 C 6.441406 1.472656 6.417969 1.484375 6.390625 1.492188 C 6.363281 1.496094 6.339844 1.511719 6.339844 1.519531 C 6.339844 1.53125 6.3125 1.542969 6.28125 1.550781 C 6.246094 1.558594 6.21875 1.570312 6.21875 1.578125 C 6.21875 1.585938 6.199219 1.601562 6.171875 1.605469 C 6.140625 1.613281 6.121094 1.628906 6.121094 1.636719 C 6.121094 1.648438 6.105469 1.65625 6.089844 1.65625 C 6.074219 1.65625 6.058594 1.664062 6.058594 1.675781 C 6.058594 1.683594 6.03125 1.699219 6 1.703125 C 5.96875 1.710938 5.941406 1.726562 5.941406 1.734375 C 5.941406 1.746094 5.917969 1.757812 5.890625 1.765625 C 5.863281 1.769531 5.839844 1.785156 5.839844 1.792969 C 5.839844 1.800781 5.8125 1.8125 5.78125 1.820312 C 5.699219 1.835938 5.699219 1.839844 5.699219 2.554688 C 5.699219 3.199219 5.707031 3.265625 5.765625 3.210938 C 5.78125 3.191406 5.808594 3.179688 5.820312 3.179688 C 5.832031 3.179688 5.839844 3.171875 5.839844 3.160156 C 5.839844 3.152344 5.867188 3.136719 5.898438 3.128906 C 5.933594 3.125 5.960938 3.109375 5.960938 3.101562 C 5.960938 3.089844 5.984375 3.078125 6.011719 3.070312 C 6.039062 3.066406 6.058594 3.054688 6.058594 3.046875 C 6.0625 3.039062 6.109375 3.011719 6.171875 2.984375 C 6.230469 2.960938 6.28125 2.929688 6.28125 2.921875 C 6.28125 2.914062 6.292969 2.910156 6.308594 2.910156 C 6.328125 2.910156 6.339844 2.902344 6.339844 2.890625 C 6.339844 2.878906 6.363281 2.867188 6.390625 2.859375 C 6.417969 2.851562 6.441406 2.839844 6.441406 2.832031 C 6.441406 2.824219 6.46875 2.808594 6.5 2.804688 C 6.53125 2.796875 6.558594 2.78125 6.558594 2.773438 C 6.558594 2.765625 6.609375 2.730469 6.671875 2.703125 C 6.839844 2.625 6.859375 2.613281 6.859375 2.597656 C 6.859375 2.589844 6.875 2.582031 6.890625 2.582031 C 6.90625 2.582031 6.921875 2.574219 6.921875 2.5625 C 6.921875 2.550781 6.9375 2.542969 6.960938 2.542969 C 6.984375 2.542969 7.007812 2.53125 7.011719 2.515625 C 7.019531 2.5 7.050781 2.480469 7.082031 2.476562 C 7.113281 2.46875 7.140625 2.457031 7.140625 2.449219 C 7.140625 2.4375 7.164062 2.425781 7.191406 2.417969 C 7.21875 2.414062 7.238281 2.398438 7.238281 2.390625 C 7.238281 2.378906 7.265625 2.367188 7.300781 2.359375 C 7.332031 2.351562 7.359375 2.339844 7.359375 2.332031 C 7.359375 2.324219 7.382812 2.3125 7.410156 2.304688 C 7.4375 2.296875 7.460938 2.285156 7.460938 2.273438 C 7.460938 2.261719 7.472656 2.253906 7.488281 2.253906 C 7.507812 2.253906 7.519531 2.246094 7.519531 2.238281 C 7.519531 2.226562 7.546875 2.214844 7.578125 2.207031 C 7.613281 2.199219 7.640625 2.1875 7.640625 2.179688 C 7.640625 2.171875 7.679688 2.144531 7.730469 2.121094 C 7.78125 2.097656 7.820312 2.070312 7.820312 2.058594 C 7.820312 2.050781 7.835938 2.042969 7.855469 2.042969 C 7.878906 2.042969 7.929688 2.015625 7.976562 1.984375 C 8.023438 1.953125 8.070312 1.925781 8.078125 1.925781 C 8.089844 1.925781 8.101562 1.917969 8.101562 1.910156 C 8.101562 1.898438 8.125 1.886719 8.160156 1.878906 C 8.191406 1.871094 8.226562 1.855469 8.242188 1.839844 C 8.253906 1.824219 8.277344 1.8125 8.292969 1.8125 C 8.308594 1.8125 8.320312 1.804688 8.320312 1.792969 C 8.320312 1.785156 8.347656 1.769531 8.378906 1.761719 C 8.414062 1.757812 8.441406 1.742188 8.441406 1.734375 C 8.441406 1.722656 8.460938 1.710938 8.488281 1.703125 C 8.515625 1.695312 8.539062 1.683594 8.539062 1.675781 C 8.539062 1.664062 8.554688 1.65625 8.570312 1.65625 C 8.585938 1.65625 8.601562 1.648438 8.601562 1.640625 C 8.601562 1.628906 8.621094 1.617188 8.648438 1.609375 C 8.675781 1.605469 8.699219 1.589844 8.699219 1.582031 C 8.699219 1.570312 8.726562 1.558594 8.761719 1.550781 C 8.792969 1.542969 8.820312 1.53125 8.820312 1.519531 C 8.820312 1.511719 8.832031 1.503906 8.847656 1.503906 C 8.863281 1.503906 8.890625 1.492188 8.902344 1.480469 C 8.917969 1.464844 8.96875 1.4375 9.015625 1.414062 C 9.0625 1.394531 9.101562 1.371094 9.101562 1.363281 C 9.101562 1.359375 9.128906 1.347656 9.160156 1.339844 C 9.191406 1.332031 9.21875 1.320312 9.21875 1.308594 C 9.21875 1.300781 9.257812 1.285156 9.300781 1.277344 C 9.34375 1.273438 9.378906 1.261719 9.378906 1.25 C 9.378906 1.242188 9.417969 1.230469 9.464844 1.222656 C 9.511719 1.214844 9.554688 1.199219 9.5625 1.1875 C 9.585938 1.15625 10.414062 1.15625 10.4375 1.1875 C 10.445312 1.203125 10.488281 1.21875 10.535156 1.226562 C 10.582031 1.230469 10.621094 1.246094 10.621094 1.253906 C 10.621094 1.261719 10.65625 1.273438 10.699219 1.277344 C 10.742188 1.285156 10.78125 1.300781 10.78125 1.308594 C 10.78125 1.320312 10.808594 1.332031 10.839844 1.339844 C 10.871094 1.347656 10.898438 1.359375 10.898438 1.363281 C 10.898438 1.371094 10.9375 1.394531 10.984375 1.414062 C 11.03125 1.4375 11.074219 1.457031 11.078125 1.464844 C 11.085938 1.46875 11.136719 1.496094 11.191406 1.523438 C 11.246094 1.546875 11.292969 1.578125 11.296875 1.585938 C 11.300781 1.59375 11.316406 1.597656 11.332031 1.597656 C 11.34375 1.597656 11.367188 1.609375 11.382812 1.625 C 11.398438 1.636719 11.445312 1.664062 11.488281 1.6875 C 11.535156 1.707031 11.582031 1.734375 11.597656 1.75 C 11.609375 1.761719 11.636719 1.773438 11.652344 1.773438 C 11.667969 1.773438 11.679688 1.78125 11.679688 1.789062 C 11.679688 1.800781 11.707031 1.8125 11.738281 1.820312 C 11.773438 1.828125 11.800781 1.839844 11.800781 1.851562 C 11.800781 1.859375 11.824219 1.875 11.851562 1.878906 C 11.878906 1.886719 11.898438 1.898438 11.898438 1.90625 C 11.898438 1.914062 11.921875 1.929688 11.949219 1.933594 C 11.976562 1.941406 12.023438 1.96875 12.050781 1.996094 C 12.082031 2.019531 12.121094 2.042969 12.144531 2.042969 C 12.164062 2.042969 12.179688 2.046875 12.179688 2.058594 C 12.179688 2.070312 12.199219 2.082031 12.3125 2.136719 C 12.34375 2.152344 12.382812 2.179688 12.394531 2.191406 C 12.410156 2.203125 12.4375 2.214844 12.453125 2.214844 C 12.46875 2.214844 12.480469 2.222656 12.480469 2.230469 C 12.480469 2.238281 12.5 2.253906 12.523438 2.265625 C 12.589844 2.296875 12.75 2.378906 12.761719 2.390625 C 12.765625 2.394531 12.816406 2.421875 12.871094 2.445312 C 12.925781 2.472656 12.972656 2.5 12.980469 2.507812 C 12.984375 2.511719 13.011719 2.523438 13.035156 2.53125 C 13.058594 2.539062 13.078125 2.550781 13.078125 2.558594 C 13.078125 2.566406 13.121094 2.589844 13.167969 2.609375 C 13.21875 2.632812 13.257812 2.65625 13.261719 2.664062 C 13.261719 2.679688 13.425781 2.753906 13.457031 2.753906 C 13.46875 2.753906 13.480469 2.769531 13.488281 2.785156 C 13.492188 2.800781 13.511719 2.8125 13.53125 2.8125 C 13.546875 2.8125 13.558594 2.820312 13.558594 2.832031 C 13.558594 2.839844 13.589844 2.855469 13.628906 2.863281 C 13.667969 2.867188 13.703125 2.886719 13.707031 2.898438 C 13.714844 2.914062 13.761719 2.945312 13.8125 2.972656 C 13.988281 3.058594 14.050781 3.09375 14.058594 3.105469 C 14.058594 3.113281 14.074219 3.121094 14.089844 3.121094 C 14.105469 3.121094 14.128906 3.132812 14.144531 3.144531 C 14.15625 3.160156 14.207031 3.1875 14.25 3.207031 C 14.292969 3.230469 14.339844 3.257812 14.355469 3.269531 C 14.371094 3.285156 14.394531 3.292969 14.410156 3.292969 C 14.425781 3.292969 14.441406 3.304688 14.441406 3.3125 C 14.441406 3.324219 14.453125 3.332031 14.46875 3.332031 C 14.484375 3.332031 14.503906 3.34375 14.519531 3.359375 C 14.53125 3.375 14.570312 3.394531 14.601562 3.402344 C 14.632812 3.40625 14.660156 3.421875 14.660156 3.429688 C 14.660156 3.441406 14.671875 3.449219 14.6875 3.449219 C 14.703125 3.449219 14.726562 3.460938 14.734375 3.472656 C 14.753906 3.503906 14.867188 3.5625 14.90625 3.5625 C 14.925781 3.5625 14.941406 3.570312 14.941406 3.582031 C 14.941406 3.59375 14.984375 3.621094 15.035156 3.644531 C 15.085938 3.667969 15.140625 3.699219 15.15625 3.714844 C 15.171875 3.726562 15.195312 3.738281 15.210938 3.738281 C 15.226562 3.738281 15.238281 3.742188 15.242188 3.753906 C 15.242188 3.761719 15.277344 3.78125 15.320312 3.804688 C 15.363281 3.824219 15.398438 3.847656 15.398438 3.855469 C 15.398438 3.863281 15.425781 3.875 15.460938 3.882812 C 15.492188 3.890625 15.519531 3.902344 15.519531 3.914062 C 15.519531 3.921875 15.542969 3.933594 15.570312 3.941406 C 15.597656 3.949219 15.621094 3.960938 15.621094 3.96875 C 15.621094 3.976562 15.644531 3.992188 15.679688 3.996094 C 15.710938 4.003906 15.742188 4.023438 15.746094 4.039062 C 15.753906 4.050781 15.777344 4.066406 15.800781 4.066406 C 15.820312 4.066406 15.839844 4.074219 15.839844 4.085938 C 15.839844 4.09375 15.851562 4.105469 15.871094 4.105469 C 15.886719 4.105469 15.898438 4.109375 15.898438 4.121094 C 15.898438 4.128906 15.914062 4.144531 15.933594 4.148438 C 15.953125 4.15625 16.007812 4.183594 16.050781 4.210938 C 16.09375 4.238281 16.144531 4.261719 16.164062 4.269531 C 16.183594 4.277344 16.199219 4.289062 16.199219 4.296875 C 16.199219 4.304688 16.226562 4.316406 16.261719 4.324219 C 16.292969 4.332031 16.320312 4.34375 16.320312 4.355469 C 16.320312 4.363281 16.339844 4.375 16.363281 4.382812 C 16.390625 4.390625 16.414062 4.402344 16.421875 4.410156 C 16.429688 4.421875 16.480469 4.449219 16.617188 4.519531 C 16.65625 4.539062 16.699219 4.566406 16.714844 4.582031 C 16.730469 4.59375 16.753906 4.605469 16.769531 4.605469 C 16.789062 4.605469 16.800781 4.613281 16.800781 4.621094 C 16.800781 4.632812 16.820312 4.644531 16.847656 4.652344 C 16.875 4.65625 16.921875 4.683594 16.953125 4.710938 C 16.980469 4.738281 17.023438 4.757812 17.042969 4.757812 C 17.0625 4.757812 17.078125 4.765625 17.078125 4.773438 C 17.078125 4.789062 17.097656 4.800781 17.210938 4.855469 C 17.242188 4.871094 17.28125 4.894531 17.296875 4.90625 C 17.3125 4.921875 17.335938 4.933594 17.351562 4.933594 C 17.367188 4.933594 17.378906 4.941406 17.378906 4.949219 C 17.378906 4.957031 17.402344 4.972656 17.433594 4.980469 C 17.460938 4.984375 17.503906 5.007812 17.527344 5.03125 C 17.550781 5.050781 17.589844 5.074219 17.613281 5.078125 C 17.640625 5.085938 17.660156 5.097656 17.660156 5.105469 C 17.660156 5.113281 17.683594 5.125 17.710938 5.132812 C 17.738281 5.140625 17.761719 5.152344 17.761719 5.164062 C 17.761719 5.175781 17.769531 5.183594 17.78125 5.183594 C 17.804688 5.183594 17.925781 5.261719 17.9375 5.285156 C 17.941406 5.292969 17.953125 5.296875 17.964844 5.296875 C 17.972656 5.296875 18.011719 5.324219 18.042969 5.355469 C 18.074219 5.386719 18.128906 5.429688 18.160156 5.445312 C 18.195312 5.464844 18.21875 5.488281 18.21875 5.496094 C 18.21875 5.503906 18.261719 5.550781 18.308594 5.601562 C 18.359375 5.652344 18.398438 5.703125 18.398438 5.714844 C 18.398438 5.726562 18.40625 5.742188 18.414062 5.746094 C 18.4375 5.753906 18.519531 5.871094 18.519531 5.894531 C 18.519531 5.90625 18.527344 5.914062 18.539062 5.914062 C 18.550781 5.914062 18.558594 5.929688 18.558594 5.945312 C 18.558594 5.976562 18.617188 6.089844 18.644531 6.109375 C 18.652344 6.113281 18.664062 6.15625 18.671875 6.199219 C 18.679688 6.242188 18.691406 6.28125 18.699219 6.28125 C 18.707031 6.28125 18.722656 6.324219 18.726562 6.378906 L 18.742188 6.472656 L 19.984375 6.472656 L 19.96875 6.324219 C 19.960938 6.242188 19.949219 6.171875 19.9375 6.164062 C 19.929688 6.160156 19.917969 6.105469 19.910156 6.042969 C 19.902344 5.984375 19.886719 5.933594 19.878906 5.933594 C 19.867188 5.933594 19.859375 5.914062 19.859375 5.886719 C 19.859375 5.859375 19.851562 5.835938 19.84375 5.835938 C 19.832031 5.835938 19.820312 5.796875 19.8125 5.75 C 19.804688 5.703125 19.789062 5.664062 19.78125 5.664062 C 19.769531 5.664062 19.757812 5.628906 19.75 5.585938 C 19.742188 5.542969 19.730469 5.511719 19.71875 5.511719 C 19.710938 5.511719 19.695312 5.484375 19.691406 5.453125 C 19.683594 5.421875 19.667969 5.394531 19.660156 5.394531 C 19.648438 5.394531 19.640625 5.382812 19.640625 5.367188 C 19.640625 5.351562 19.628906 5.328125 19.613281 5.3125 C 19.601562 5.300781 19.574219 5.253906 19.550781 5.214844 C 19.53125 5.175781 19.507812 5.144531 19.496094 5.144531 C 19.488281 5.144531 19.480469 5.128906 19.480469 5.113281 C 19.480469 5.097656 19.464844 5.078125 19.449219 5.074219 C 19.433594 5.066406 19.421875 5.050781 19.421875 5.039062 C 19.421875 5.007812 19.371094 4.949219 19.238281 4.8125 C 18.964844 4.53125 18.855469 4.429688 18.820312 4.429688 C 18.8125 4.429688 18.792969 4.421875 18.785156 4.40625 C 18.765625 4.375 18.640625 4.289062 18.59375 4.269531 C 18.574219 4.265625 18.558594 4.25 18.558594 4.238281 C 18.558594 4.226562 18.546875 4.21875 18.53125 4.21875 C 18.515625 4.21875 18.492188 4.207031 18.476562 4.195312 C 18.4375 4.160156 18.382812 4.128906 18.28125 4.078125 C 18.230469 4.054688 18.183594 4.03125 18.179688 4.019531 C 18.160156 3.996094 18.023438 3.929688 17.992188 3.929688 C 17.976562 3.929688 17.960938 3.917969 17.953125 3.902344 C 17.945312 3.886719 17.925781 3.871094 17.910156 3.871094 C 17.894531 3.871094 17.878906 3.863281 17.878906 3.855469 C 17.878906 3.847656 17.859375 3.832031 17.828125 3.824219 C 17.800781 3.820312 17.78125 3.804688 17.78125 3.796875 C 17.78125 3.785156 17.765625 3.777344 17.75 3.777344 C 17.734375 3.777344 17.71875 3.765625 17.71875 3.757812 C 17.71875 3.746094 17.714844 3.738281 17.703125 3.742188 C 17.683594 3.746094 17.613281 3.714844 17.582031 3.6875 C 17.570312 3.671875 17.542969 3.660156 17.527344 3.660156 C 17.511719 3.660156 17.5 3.652344 17.5 3.644531 C 17.5 3.632812 17.476562 3.621094 17.449219 3.613281 C 17.421875 3.609375 17.398438 3.59375 17.398438 3.585938 C 17.398438 3.574219 17.371094 3.5625 17.339844 3.554688 C 17.308594 3.546875 17.28125 3.535156 17.28125 3.523438 C 17.28125 3.515625 17.265625 3.507812 17.25 3.507812 C 17.234375 3.507812 17.21875 3.496094 17.21875 3.488281 C 17.21875 3.472656 17.0625 3.390625 17.03125 3.390625 C 17.023438 3.390625 17.003906 3.378906 16.988281 3.367188 C 16.925781 3.3125 16.90625 3.296875 16.859375 3.285156 C 16.832031 3.277344 16.800781 3.257812 16.785156 3.242188 C 16.769531 3.230469 16.746094 3.21875 16.730469 3.21875 C 16.710938 3.21875 16.699219 3.207031 16.699219 3.199219 C 16.699219 3.1875 16.6875 3.179688 16.671875 3.179688 C 16.652344 3.179688 16.640625 3.171875 16.640625 3.160156 C 16.640625 3.148438 16.617188 3.136719 16.589844 3.128906 C 16.5625 3.121094 16.539062 3.109375 16.539062 3.101562 C 16.539062 3.09375 16.511719 3.078125 16.480469 3.074219 C 16.445312 3.066406 16.421875 3.050781 16.421875 3.042969 C 16.421875 3.035156 16.398438 3.019531 16.371094 3.011719 C 16.34375 3.007812 16.320312 2.996094 16.320312 2.984375 C 16.320312 2.976562 16.292969 2.964844 16.261719 2.957031 C 16.226562 2.949219 16.199219 2.9375 16.199219 2.929688 C 16.199219 2.925781 16.167969 2.902344 16.125 2.878906 C 16.082031 2.859375 16.046875 2.835938 16.039062 2.832031 C 16.015625 2.804688 15.882812 2.734375 15.851562 2.734375 C 15.835938 2.734375 15.820312 2.726562 15.820312 2.71875 C 15.820312 2.707031 15.777344 2.679688 15.726562 2.65625 C 15.671875 2.628906 15.625 2.605469 15.621094 2.597656 C 15.609375 2.589844 15.46875 2.511719 15.320312 2.433594 C 15.28125 2.414062 15.246094 2.394531 15.238281 2.386719 C 15.234375 2.378906 15.210938 2.367188 15.183594 2.363281 C 15.160156 2.355469 15.140625 2.339844 15.140625 2.332031 C 15.140625 2.324219 15.117188 2.308594 15.085938 2.304688 C 15.054688 2.296875 15.019531 2.273438 15.003906 2.253906 C 14.992188 2.234375 14.953125 2.214844 14.921875 2.207031 C 14.886719 2.199219 14.859375 2.1875 14.859375 2.179688 C 14.859375 2.167969 14.84375 2.15625 14.824219 2.148438 C 14.769531 2.128906 14.574219 2.027344 14.5625 2.011719 C 14.554688 2 14.507812 1.972656 14.460938 1.949219 C 14.355469 1.898438 14.292969 1.863281 14.28125 1.847656 C 14.273438 1.839844 14.246094 1.828125 14.222656 1.820312 C 14.195312 1.8125 14.160156 1.792969 14.144531 1.78125 C 14.128906 1.765625 14.105469 1.753906 14.089844 1.753906 C 14.074219 1.753906 14.058594 1.746094 14.058594 1.734375 C 14.058594 1.726562 14.035156 1.714844 14.007812 1.707031 C 13.980469 1.699219 13.9375 1.675781 13.914062 1.65625 C 13.890625 1.632812 13.851562 1.613281 13.824219 1.605469 C 13.800781 1.601562 13.78125 1.585938 13.78125 1.578125 C 13.78125 1.566406 13.765625 1.5625 13.75 1.5625 C 13.734375 1.5625 13.710938 1.546875 13.695312 1.535156 C 13.679688 1.519531 13.644531 1.5 13.617188 1.492188 C 13.59375 1.484375 13.566406 1.472656 13.558594 1.464844 C 13.542969 1.449219 13.480469 1.410156 13.378906 1.363281 C 13.332031 1.339844 13.28125 1.308594 13.273438 1.296875 C 13.265625 1.28125 13.246094 1.273438 13.230469 1.273438 C 13.214844 1.273438 13.199219 1.261719 13.199219 1.253906 C 13.199219 1.242188 13.167969 1.230469 13.132812 1.222656 C 13.09375 1.214844 13.058594 1.199219 13.050781 1.183594 C 13.046875 1.167969 13.027344 1.15625 13.011719 1.15625 C 12.992188 1.15625 12.980469 1.148438 12.980469 1.136719 C 12.980469 1.125 12.96875 1.117188 12.953125 1.117188 C 12.9375 1.117188 12.910156 1.105469 12.894531 1.09375 C 12.882812 1.078125 12.835938 1.050781 12.789062 1.03125 C 12.746094 1.007812 12.699219 0.980469 12.683594 0.96875 C 12.667969 0.953125 12.644531 0.945312 12.628906 0.945312 C 12.613281 0.945312 12.601562 0.9375 12.601562 0.925781 C 12.601562 0.917969 12.574219 0.902344 12.539062 0.894531 C 12.507812 0.890625 12.480469 0.875 12.480469 0.867188 C 12.480469 0.855469 12.457031 0.84375 12.429688 0.835938 C 12.402344 0.828125 12.378906 0.816406 12.378906 0.808594 C 12.378906 0.800781 12.355469 0.789062 12.324219 0.78125 C 12.296875 0.773438 12.261719 0.753906 12.246094 0.734375 C 12.230469 0.714844 12.195312 0.691406 12.164062 0.683594 C 12.136719 0.675781 12.105469 0.664062 12.101562 0.660156 C 12.085938 0.636719 12.019531 0.601562 11.90625 0.546875 C 11.847656 0.523438 11.800781 0.492188 11.800781 0.484375 C 11.800781 0.476562 11.757812 0.453125 11.710938 0.433594 C 11.660156 0.414062 11.621094 0.390625 11.621094 0.382812 C 11.621094 0.375 11.597656 0.363281 11.570312 0.359375 C 11.542969 0.351562 11.519531 0.335938 11.519531 0.328125 C 11.519531 0.316406 11.507812 0.308594 11.496094 0.308594 C 11.480469 0.308594 11.445312 0.296875 11.417969 0.28125 C 11.386719 0.265625 11.335938 0.25 11.300781 0.242188 C 11.269531 0.234375 11.238281 0.21875 11.238281 0.210938 C 11.238281 0.203125 11.207031 0.1875 11.164062 0.179688 C 11.125 0.171875 11.085938 0.164062 11.078125 0.15625 C 11.0625 0.136719 10.871094 0.078125 10.824219 0.078125 C 10.800781 0.078125 10.78125 0.0703125 10.78125 0.0585938 C 10.78125 0.0078125 9.773438 -0.0195312 9.386719 0.0234375 M 4.453125 0.242188 C 4.445312 0.257812 4.441406 0.792969 4.441406 1.425781 C 4.441406 2.214844 4.433594 2.582031 4.417969 2.582031 C 4.398438 2.582031 4.378906 2.597656 4.3125 2.652344 C 4.296875 2.664062 4.261719 2.683594 4.230469 2.6875 C 4.203125 2.695312 4.179688 2.710938 4.179688 2.71875 C 4.179688 2.726562 4.167969 2.734375 4.152344 2.734375 C 4.136719 2.734375 4.109375 2.746094 4.097656 2.761719 C 4.082031 2.773438 4.03125 2.804688 3.980469 2.828125 C 3.875 2.878906 3.8125 2.914062 3.800781 2.929688 C 3.792969 2.9375 3.769531 2.949219 3.742188 2.957031 C 3.714844 2.964844 3.679688 2.984375 3.664062 3 C 3.648438 3.011719 3.625 3.023438 3.609375 3.023438 C 3.59375 3.023438 3.578125 3.035156 3.578125 3.042969 C 3.578125 3.054688 3.566406 3.0625 3.550781 3.0625 C 3.535156 3.0625 3.511719 3.074219 3.496094 3.085938 C 3.480469 3.101562 3.433594 3.128906 3.386719 3.148438 C 3.339844 3.171875 3.300781 3.195312 3.300781 3.203125 C 3.300781 3.210938 3.253906 3.238281 3.195312 3.265625 C 3.078125 3.320312 3.015625 3.355469 3 3.375 C 2.996094 3.378906 2.96875 3.390625 2.941406 3.402344 C 2.914062 3.410156 2.863281 3.4375 2.832031 3.460938 C 2.800781 3.484375 2.765625 3.507812 2.75 3.507812 C 2.734375 3.507812 2.71875 3.515625 2.71875 3.523438 C 2.71875 3.535156 2.699219 3.550781 2.671875 3.554688 C 2.640625 3.5625 2.621094 3.574219 2.621094 3.585938 C 2.621094 3.59375 2.59375 3.605469 2.558594 3.613281 C 2.527344 3.621094 2.5 3.632812 2.5 3.640625 C 2.5 3.644531 2.441406 3.679688 2.371094 3.71875 C 2.296875 3.753906 2.238281 3.789062 2.238281 3.796875 C 2.238281 3.804688 2.214844 3.816406 2.179688 3.824219 C 2.148438 3.832031 2.121094 3.84375 2.121094 3.855469 C 2.121094 3.863281 2.105469 3.871094 2.089844 3.871094 C 2.074219 3.871094 2.054688 3.886719 2.046875 3.902344 C 2.039062 3.917969 2.019531 3.929688 2 3.929688 C 1.980469 3.929688 1.941406 3.949219 1.914062 3.96875 C 1.886719 3.988281 1.855469 4.007812 1.84375 4.007812 C 1.828125 4.007812 1.820312 4.015625 1.820312 4.023438 C 1.820312 4.03125 1.785156 4.054688 1.738281 4.074219 C 1.695312 4.09375 1.660156 4.117188 1.660156 4.125 C 1.660156 4.132812 1.632812 4.144531 1.601562 4.152344 C 1.566406 4.160156 1.539062 4.171875 1.539062 4.183594 C 1.539062 4.191406 1.515625 4.203125 1.488281 4.210938 C 1.460938 4.21875 1.441406 4.230469 1.441406 4.242188 C 1.441406 4.25 1.425781 4.265625 1.40625 4.269531 C 1.359375 4.289062 1.242188 4.371094 1.1875 4.425781 C 1.164062 4.449219 1.140625 4.46875 1.132812 4.46875 C 1.117188 4.46875 1.011719 4.558594 0.921875 4.648438 C 0.894531 4.675781 0.832031 4.738281 0.785156 4.785156 C 0.738281 4.832031 0.699219 4.875 0.699219 4.882812 C 0.699219 4.890625 0.679688 4.914062 0.652344 4.9375 C 0.625 4.960938 0.597656 5 0.59375 5.023438 C 0.585938 5.042969 0.566406 5.066406 0.550781 5.074219 C 0.53125 5.082031 0.519531 5.097656 0.519531 5.113281 C 0.519531 5.128906 0.511719 5.144531 0.503906 5.144531 C 0.492188 5.144531 0.480469 5.160156 0.472656 5.179688 C 0.460938 5.214844 0.417969 5.285156 0.398438 5.296875 C 0.390625 5.304688 0.378906 5.332031 0.371094 5.359375 C 0.363281 5.390625 0.347656 5.414062 0.339844 5.414062 C 0.332031 5.414062 0.316406 5.441406 0.308594 5.472656 C 0.304688 5.503906 0.289062 5.53125 0.28125 5.53125 C 0.269531 5.53125 0.257812 5.5625 0.25 5.605469 C 0.242188 5.648438 0.226562 5.683594 0.21875 5.683594 C 0.207031 5.683594 0.195312 5.71875 0.1875 5.761719 C 0.179688 5.804688 0.167969 5.835938 0.15625 5.835938 C 0.148438 5.835938 0.140625 5.863281 0.140625 5.894531 C 0.140625 5.925781 0.132812 5.953125 0.121094 5.953125 C 0.113281 5.953125 0.0976562 6.003906 0.0898438 6.0625 C 0.0820312 6.125 0.0703125 6.183594 0.0625 6.195312 C 0.0507812 6.203125 0.0390625 6.273438 0.03125 6.34375 L 0.0195312 6.472656 L 1.253906 6.472656 L 1.269531 6.402344 C 1.277344 6.363281 1.289062 6.320312 1.300781 6.300781 C 1.308594 6.285156 1.324219 6.238281 1.328125 6.199219 C 1.335938 6.160156 1.351562 6.125 1.359375 6.125 C 1.371094 6.125 1.378906 6.113281 1.378906 6.09375 C 1.382812 6.074219 1.394531 6.042969 1.410156 6.023438 C 1.425781 6 1.441406 5.96875 1.441406 5.949219 C 1.441406 5.929688 1.449219 5.914062 1.460938 5.914062 C 1.472656 5.914062 1.480469 5.902344 1.480469 5.886719 C 1.480469 5.867188 1.492188 5.851562 1.507812 5.84375 C 1.523438 5.839844 1.542969 5.8125 1.546875 5.789062 C 1.554688 5.761719 1.570312 5.742188 1.582031 5.742188 C 1.589844 5.742188 1.601562 5.730469 1.601562 5.714844 C 1.601562 5.703125 1.617188 5.675781 1.636719 5.660156 C 1.652344 5.644531 1.679688 5.617188 1.691406 5.601562 C 1.78125 5.5 2.09375 5.242188 2.132812 5.242188 C 2.144531 5.242188 2.160156 5.226562 2.167969 5.210938 C 2.171875 5.195312 2.191406 5.183594 2.210938 5.183594 C 2.226562 5.183594 2.238281 5.175781 2.238281 5.164062 C 2.238281 5.152344 2.253906 5.144531 2.269531 5.144531 C 2.285156 5.144531 2.308594 5.132812 2.324219 5.121094 C 2.339844 5.105469 2.386719 5.078125 2.429688 5.058594 C 2.472656 5.035156 2.523438 5.007812 2.535156 4.996094 C 2.550781 4.980469 2.574219 4.96875 2.589844 4.96875 C 2.605469 4.96875 2.621094 4.960938 2.621094 4.953125 C 2.621094 4.941406 2.632812 4.933594 2.648438 4.933594 C 2.664062 4.933594 2.6875 4.921875 2.703125 4.90625 C 2.71875 4.890625 2.753906 4.871094 2.78125 4.863281 C 2.808594 4.855469 2.835938 4.84375 2.839844 4.839844 C 2.855469 4.820312 2.914062 4.785156 3.019531 4.738281 C 3.070312 4.714844 3.117188 4.683594 3.125 4.667969 C 3.136719 4.65625 3.15625 4.644531 3.171875 4.644531 C 3.1875 4.644531 3.199219 4.636719 3.199219 4.625 C 3.199219 4.617188 3.226562 4.601562 3.257812 4.59375 C 3.289062 4.589844 3.328125 4.570312 3.339844 4.554688 C 3.355469 4.539062 3.378906 4.527344 3.390625 4.527344 C 3.40625 4.527344 3.421875 4.519531 3.421875 4.511719 C 3.421875 4.5 3.441406 4.488281 3.46875 4.480469 C 3.496094 4.472656 3.519531 4.460938 3.519531 4.449219 C 3.519531 4.441406 3.535156 4.429688 3.550781 4.429688 C 3.566406 4.429688 3.578125 4.421875 3.578125 4.414062 C 3.578125 4.402344 3.605469 4.390625 3.640625 4.382812 C 3.671875 4.375 3.699219 4.363281 3.699219 4.351562 C 3.699219 4.34375 3.722656 4.332031 3.75 4.324219 C 3.777344 4.316406 3.800781 4.304688 3.800781 4.296875 C 3.800781 4.289062 3.828125 4.273438 3.859375 4.265625 C 3.894531 4.261719 3.921875 4.246094 3.921875 4.238281 C 3.921875 4.226562 3.941406 4.214844 3.96875 4.207031 C 3.996094 4.203125 4.019531 4.1875 4.019531 4.179688 C 4.019531 4.167969 4.03125 4.160156 4.042969 4.160156 C 4.054688 4.160156 4.09375 4.140625 4.128906 4.113281 C 4.164062 4.089844 4.21875 4.0625 4.246094 4.054688 C 4.273438 4.046875 4.300781 4.03125 4.308594 4.015625 C 4.3125 4 4.332031 3.988281 4.347656 3.988281 C 4.367188 3.988281 4.378906 3.980469 4.378906 3.96875 C 4.378906 3.957031 4.394531 3.949219 4.410156 3.949219 C 4.4375 3.949219 4.441406 4.101562 4.441406 5.203125 C 4.441406 6.023438 4.445312 6.453125 4.460938 6.453125 C 4.472656 6.453125 4.480469 5.402344 4.480469 3.332031 C 4.480469 1.617188 4.476562 0.210938 4.472656 0.210938 C 4.46875 0.210938 4.457031 0.226562 4.453125 0.242188 M 0 11.007812 C 0 14.191406 0.0117188 14.957031 0.0585938 14.988281 C 0.0664062 14.992188 0.0820312 15.050781 0.0859375 15.113281 C 0.09375 15.175781 0.109375 15.238281 0.121094 15.246094 C 0.132812 15.257812 0.140625 15.285156 0.140625 15.3125 C 0.140625 15.335938 0.148438 15.355469 0.15625 15.355469 C 0.167969 15.355469 0.179688 15.394531 0.1875 15.441406 C 0.195312 15.488281 0.210938 15.527344 0.21875 15.527344 C 0.230469 15.527344 0.242188 15.554688 0.25 15.585938 C 0.257812 15.621094 0.277344 15.667969 0.292969 15.699219 C 0.308594 15.726562 0.320312 15.761719 0.320312 15.773438 C 0.320312 15.789062 0.328125 15.796875 0.335938 15.796875 C 0.347656 15.796875 0.363281 15.820312 0.371094 15.851562 C 0.375 15.878906 0.398438 15.914062 0.417969 15.933594 C 0.4375 15.949219 0.460938 15.980469 0.46875 16.003906 C 0.476562 16.027344 0.492188 16.046875 0.5 16.046875 C 0.511719 16.046875 0.519531 16.0625 0.519531 16.078125 C 0.519531 16.09375 0.535156 16.113281 0.550781 16.117188 C 0.566406 16.125 0.578125 16.140625 0.578125 16.15625 C 0.578125 16.171875 0.597656 16.199219 0.621094 16.21875 C 0.640625 16.234375 0.660156 16.257812 0.660156 16.273438 C 0.660156 16.285156 0.703125 16.332031 0.757812 16.378906 C 0.8125 16.425781 0.863281 16.484375 0.867188 16.507812 C 0.875 16.53125 0.890625 16.550781 0.902344 16.550781 C 0.921875 16.550781 1 16.613281 1.109375 16.71875 C 1.144531 16.753906 1.179688 16.78125 1.1875 16.78125 C 1.195312 16.78125 1.210938 16.789062 1.226562 16.800781 C 1.238281 16.8125 1.28125 16.84375 1.320312 16.878906 C 1.359375 16.910156 1.402344 16.933594 1.414062 16.933594 C 1.429688 16.933594 1.441406 16.945312 1.441406 16.953125 C 1.441406 16.964844 1.460938 16.976562 1.488281 16.984375 C 1.515625 16.992188 1.539062 17.003906 1.539062 17.015625 C 1.539062 17.023438 1.550781 17.03125 1.566406 17.03125 C 1.582031 17.03125 1.605469 17.042969 1.617188 17.058594 C 1.632812 17.074219 1.667969 17.09375 1.699219 17.097656 C 1.730469 17.105469 1.761719 17.125 1.769531 17.136719 C 1.773438 17.152344 1.792969 17.167969 1.808594 17.167969 C 1.828125 17.167969 1.839844 17.171875 1.839844 17.183594 C 1.839844 17.191406 1.855469 17.207031 1.875 17.210938 C 1.914062 17.222656 1.984375 17.265625 2 17.285156 C 2.003906 17.289062 2.03125 17.300781 2.058594 17.308594 C 2.085938 17.320312 2.121094 17.335938 2.136719 17.351562 C 2.152344 17.367188 2.175781 17.378906 2.191406 17.378906 C 2.207031 17.378906 2.21875 17.386719 2.21875 17.398438 C 2.21875 17.40625 2.234375 17.417969 2.25 17.417969 C 2.265625 17.417969 2.289062 17.425781 2.304688 17.441406 C 2.316406 17.453125 2.367188 17.480469 2.410156 17.503906 C 2.453125 17.523438 2.492188 17.546875 2.496094 17.554688 C 2.503906 17.574219 2.667969 17.648438 2.695312 17.648438 C 2.707031 17.648438 2.722656 17.660156 2.726562 17.675781 C 2.734375 17.691406 2.753906 17.707031 2.769531 17.707031 C 2.785156 17.707031 2.800781 17.714844 2.800781 17.726562 C 2.800781 17.734375 2.8125 17.742188 2.828125 17.742188 C 2.84375 17.742188 2.867188 17.753906 2.882812 17.769531 C 2.898438 17.78125 2.945312 17.808594 2.988281 17.832031 C 3.035156 17.851562 3.082031 17.878906 3.097656 17.894531 C 3.109375 17.90625 3.136719 17.917969 3.152344 17.917969 C 3.167969 17.917969 3.179688 17.925781 3.179688 17.933594 C 3.179688 17.945312 3.203125 17.957031 3.230469 17.964844 C 3.257812 17.96875 3.28125 17.984375 3.28125 17.992188 C 3.28125 18.003906 3.308594 18.015625 3.339844 18.023438 C 3.371094 18.03125 3.398438 18.042969 3.398438 18.050781 C 3.398438 18.058594 3.414062 18.070312 3.433594 18.078125 C 3.472656 18.089844 3.542969 18.132812 3.558594 18.152344 C 3.566406 18.15625 3.59375 18.167969 3.621094 18.175781 C 3.648438 18.1875 3.675781 18.199219 3.679688 18.207031 C 3.699219 18.230469 3.835938 18.304688 3.863281 18.304688 C 3.882812 18.304688 3.902344 18.316406 3.90625 18.332031 C 3.914062 18.347656 3.933594 18.359375 3.949219 18.359375 C 3.964844 18.359375 3.980469 18.367188 3.980469 18.378906 C 3.980469 18.386719 3.996094 18.398438 4.015625 18.40625 C 4.054688 18.417969 4.125 18.460938 4.140625 18.480469 C 4.144531 18.488281 4.175781 18.5 4.207031 18.503906 C 4.234375 18.511719 4.261719 18.527344 4.261719 18.535156 C 4.261719 18.542969 4.28125 18.558594 4.304688 18.5625 C 4.328125 18.570312 4.355469 18.585938 4.359375 18.59375 C 4.367188 18.601562 4.394531 18.613281 4.425781 18.621094 L 4.480469 18.632812 L 4.480469 13.140625 C 4.480469 9.492188 4.472656 7.648438 4.460938 7.648438 C 4.445312 7.648438 4.441406 9.261719 4.441406 12.453125 C 4.441406 17.691406 4.449219 17.308594 4.34375 17.210938 C 4.328125 17.195312 4.304688 17.183594 4.289062 17.183594 C 4.273438 17.183594 4.261719 17.175781 4.261719 17.167969 C 4.261719 17.15625 4.246094 17.148438 4.230469 17.148438 C 4.214844 17.148438 4.199219 17.140625 4.199219 17.128906 C 4.199219 17.121094 4.175781 17.105469 4.148438 17.101562 C 4.121094 17.09375 4.101562 17.082031 4.101562 17.070312 C 4.101562 17.0625 4.074219 17.046875 4.039062 17.039062 C 4.007812 17.035156 3.980469 17.023438 3.980469 17.015625 C 3.980469 16.996094 3.816406 16.914062 3.78125 16.914062 C 3.769531 16.914062 3.761719 16.90625 3.761719 16.898438 C 3.761719 16.886719 3.707031 16.851562 3.640625 16.816406 C 3.574219 16.78125 3.519531 16.746094 3.519531 16.738281 C 3.519531 16.730469 3.492188 16.71875 3.460938 16.714844 C 3.425781 16.707031 3.398438 16.691406 3.398438 16.683594 C 3.398438 16.671875 3.378906 16.660156 3.351562 16.652344 C 3.324219 16.648438 3.300781 16.636719 3.300781 16.625 C 3.300781 16.617188 3.277344 16.605469 3.25 16.597656 C 3.21875 16.59375 3.175781 16.570312 3.152344 16.546875 C 3.128906 16.527344 3.089844 16.503906 3.066406 16.5 C 3.039062 16.492188 3.019531 16.480469 3.019531 16.46875 C 3.019531 16.460938 3.007812 16.453125 2.992188 16.453125 C 2.976562 16.453125 2.953125 16.441406 2.941406 16.425781 C 2.929688 16.410156 2.890625 16.390625 2.859375 16.386719 C 2.828125 16.378906 2.800781 16.367188 2.800781 16.355469 C 2.800781 16.347656 2.769531 16.324219 2.734375 16.308594 C 2.699219 16.289062 2.644531 16.261719 2.613281 16.246094 C 2.585938 16.230469 2.558594 16.210938 2.558594 16.203125 C 2.558594 16.195312 2.535156 16.179688 2.5 16.175781 C 2.46875 16.167969 2.433594 16.148438 2.417969 16.132812 C 2.40625 16.117188 2.382812 16.105469 2.367188 16.105469 C 2.351562 16.105469 2.339844 16.097656 2.339844 16.085938 C 2.339844 16.078125 2.328125 16.066406 2.3125 16.066406 C 2.296875 16.066406 2.269531 16.054688 2.253906 16.042969 C 2.242188 16.027344 2.207031 16.007812 2.183594 16 C 2.160156 15.992188 2.117188 15.96875 2.089844 15.945312 C 1.941406 15.816406 1.917969 15.796875 1.902344 15.796875 C 1.878906 15.796875 1.679688 15.605469 1.679688 15.585938 C 1.679688 15.578125 1.65625 15.546875 1.625 15.515625 C 1.59375 15.484375 1.5625 15.445312 1.554688 15.425781 C 1.546875 15.410156 1.53125 15.394531 1.519531 15.394531 C 1.507812 15.394531 1.5 15.378906 1.5 15.363281 C 1.5 15.335938 1.382812 15.101562 1.359375 15.085938 C 1.351562 15.078125 1.339844 15.039062 1.332031 14.992188 C 1.324219 14.949219 1.308594 14.910156 1.300781 14.910156 C 1.289062 14.910156 1.277344 14.851562 1.269531 14.777344 C 1.261719 14.703125 1.246094 14.640625 1.238281 14.640625 C 1.226562 14.640625 1.21875 13.117188 1.21875 11.144531 L 1.21875 7.648438 L 0 7.648438 L 0 11.007812 M 18.796875 7.921875 C 18.796875 8.074219 18.792969 9.648438 18.792969 11.421875 C 18.789062 13.738281 18.785156 14.648438 18.769531 14.65625 C 18.757812 14.664062 18.738281 14.722656 18.730469 14.785156 C 18.726562 14.847656 18.710938 14.90625 18.703125 14.910156 C 18.695312 14.917969 18.679688 14.957031 18.671875 14.996094 C 18.667969 15.039062 18.652344 15.078125 18.644531 15.082031 C 18.632812 15.089844 18.613281 15.125 18.601562 15.164062 C 18.589844 15.203125 18.566406 15.246094 18.550781 15.257812 C 18.535156 15.269531 18.515625 15.304688 18.511719 15.335938 C 18.503906 15.367188 18.484375 15.394531 18.46875 15.402344 C 18.453125 15.40625 18.441406 15.425781 18.441406 15.441406 C 18.441406 15.457031 18.433594 15.46875 18.425781 15.472656 C 18.417969 15.472656 18.386719 15.503906 18.359375 15.542969 C 18.3125 15.609375 18.089844 15.835938 18.070312 15.835938 C 18.050781 15.835938 17.878906 15.960938 17.878906 15.972656 C 17.878906 15.980469 17.859375 15.992188 17.828125 16 C 17.800781 16.003906 17.78125 16.019531 17.78125 16.027344 C 17.78125 16.039062 17.753906 16.050781 17.71875 16.058594 C 17.6875 16.066406 17.660156 16.078125 17.660156 16.085938 C 17.660156 16.09375 17.609375 16.125 17.546875 16.15625 C 17.484375 16.1875 17.417969 16.222656 17.398438 16.230469 C 17.375 16.242188 17.359375 16.257812 17.359375 16.265625 C 17.359375 16.273438 17.347656 16.28125 17.328125 16.28125 C 17.3125 16.28125 17.300781 16.289062 17.300781 16.296875 C 17.300781 16.308594 17.277344 16.324219 17.25 16.328125 C 17.222656 16.335938 17.199219 16.347656 17.199219 16.359375 C 17.199219 16.367188 17.171875 16.378906 17.140625 16.386719 C 17.105469 16.394531 17.078125 16.40625 17.078125 16.414062 C 17.078125 16.425781 17.058594 16.4375 17.03125 16.445312 C 17.003906 16.453125 16.980469 16.464844 16.980469 16.472656 C 16.980469 16.480469 16.957031 16.492188 16.929688 16.5 C 16.902344 16.507812 16.878906 16.519531 16.878906 16.53125 C 16.878906 16.542969 16.867188 16.550781 16.851562 16.550781 C 16.832031 16.550781 16.820312 16.558594 16.820312 16.566406 C 16.820312 16.578125 16.792969 16.589844 16.761719 16.597656 C 16.726562 16.605469 16.699219 16.617188 16.699219 16.628906 C 16.699219 16.636719 16.675781 16.652344 16.648438 16.65625 C 16.621094 16.664062 16.601562 16.675781 16.601562 16.6875 C 16.601562 16.695312 16.585938 16.703125 16.570312 16.703125 C 16.550781 16.703125 16.535156 16.714844 16.527344 16.734375 C 16.519531 16.75 16.507812 16.761719 16.496094 16.761719 C 16.460938 16.761719 16.332031 16.824219 16.3125 16.851562 C 16.304688 16.867188 16.285156 16.878906 16.269531 16.878906 C 16.253906 16.878906 16.238281 16.886719 16.238281 16.894531 C 16.238281 16.90625 16.214844 16.917969 16.179688 16.925781 C 16.148438 16.933594 16.113281 16.949219 16.097656 16.964844 C 16.085938 16.980469 16.0625 16.992188 16.046875 16.992188 C 16.03125 16.992188 16.019531 17 16.019531 17.011719 C 16.019531 17.019531 15.996094 17.03125 15.96875 17.039062 C 15.941406 17.046875 15.921875 17.058594 15.921875 17.070312 C 15.921875 17.078125 15.894531 17.089844 15.859375 17.097656 C 15.828125 17.105469 15.800781 17.121094 15.800781 17.128906 C 15.800781 17.140625 15.789062 17.148438 15.773438 17.148438 C 15.722656 17.148438 15.71875 17.195312 15.71875 17.859375 C 15.71875 18.597656 15.710938 18.558594 15.871094 18.464844 C 15.914062 18.4375 15.964844 18.414062 15.984375 18.40625 C 16.003906 18.398438 16.019531 18.386719 16.019531 18.378906 C 16.019531 18.371094 16.046875 18.359375 16.078125 18.351562 C 16.113281 18.34375 16.140625 18.332031 16.140625 18.320312 C 16.140625 18.3125 16.164062 18.296875 16.191406 18.292969 C 16.21875 18.285156 16.238281 18.273438 16.238281 18.265625 C 16.238281 18.257812 16.265625 18.242188 16.296875 18.230469 C 16.355469 18.207031 16.421875 18.164062 16.441406 18.144531 C 16.445312 18.140625 16.46875 18.128906 16.496094 18.121094 C 16.519531 18.113281 16.539062 18.097656 16.539062 18.089844 C 16.539062 18.078125 16.554688 18.070312 16.570312 18.070312 C 16.585938 18.070312 16.601562 18.0625 16.601562 18.054688 C 16.601562 18.042969 16.628906 18.03125 16.660156 18.023438 C 16.691406 18.015625 16.71875 18.003906 16.71875 17.992188 C 16.71875 17.984375 16.742188 17.96875 16.769531 17.964844 C 16.796875 17.957031 16.820312 17.945312 16.820312 17.9375 C 16.820312 17.933594 16.871094 17.90625 16.929688 17.878906 C 16.988281 17.851562 17.039062 17.824219 17.039062 17.816406 C 17.039062 17.808594 17.054688 17.800781 17.070312 17.800781 C 17.085938 17.800781 17.101562 17.792969 17.101562 17.78125 C 17.101562 17.773438 17.121094 17.757812 17.148438 17.75 C 17.175781 17.746094 17.199219 17.734375 17.199219 17.722656 C 17.199219 17.714844 17.226562 17.703125 17.261719 17.695312 C 17.292969 17.6875 17.320312 17.675781 17.320312 17.664062 C 17.320312 17.65625 17.363281 17.628906 17.414062 17.605469 C 17.46875 17.585938 17.515625 17.558594 17.519531 17.550781 C 17.527344 17.542969 17.5625 17.523438 17.601562 17.5 C 17.636719 17.480469 17.679688 17.453125 17.695312 17.441406 C 17.710938 17.425781 17.734375 17.417969 17.75 17.417969 C 17.765625 17.417969 17.78125 17.410156 17.78125 17.398438 C 17.78125 17.390625 17.808594 17.375 17.839844 17.367188 C 17.871094 17.363281 17.898438 17.347656 17.898438 17.339844 C 17.898438 17.332031 17.9375 17.308594 17.984375 17.285156 C 18.089844 17.230469 18.148438 17.199219 18.160156 17.183594 C 18.164062 17.175781 18.191406 17.164062 18.21875 17.15625 C 18.246094 17.148438 18.28125 17.128906 18.296875 17.117188 C 18.3125 17.101562 18.335938 17.089844 18.351562 17.089844 C 18.367188 17.089844 18.378906 17.082031 18.378906 17.070312 C 18.378906 17.058594 18.394531 17.050781 18.410156 17.050781 C 18.425781 17.050781 18.445312 17.039062 18.453125 17.023438 C 18.460938 17.003906 18.476562 16.992188 18.492188 16.992188 C 18.503906 16.992188 18.527344 16.980469 18.542969 16.96875 C 18.558594 16.953125 18.582031 16.9375 18.601562 16.929688 C 18.652344 16.90625 18.707031 16.867188 18.75 16.824219 C 18.773438 16.800781 18.804688 16.78125 18.8125 16.78125 C 18.824219 16.78125 18.84375 16.765625 18.863281 16.746094 C 18.882812 16.726562 18.9375 16.679688 18.992188 16.636719 C 19.121094 16.53125 19.199219 16.453125 19.199219 16.433594 C 19.199219 16.421875 19.234375 16.382812 19.28125 16.34375 C 19.324219 16.304688 19.359375 16.257812 19.359375 16.246094 C 19.359375 16.234375 19.367188 16.222656 19.375 16.222656 C 19.382812 16.222656 19.414062 16.1875 19.441406 16.144531 C 19.46875 16.101562 19.496094 16.070312 19.503906 16.070312 C 19.511719 16.066406 19.519531 16.054688 19.519531 16.039062 C 19.519531 16.023438 19.527344 16.011719 19.539062 16.011719 C 19.550781 16.011719 19.566406 15.988281 19.570312 15.960938 C 19.578125 15.933594 19.589844 15.914062 19.601562 15.914062 C 19.609375 15.914062 19.621094 15.886719 19.628906 15.855469 C 19.636719 15.824219 19.652344 15.796875 19.660156 15.796875 C 19.667969 15.796875 19.683594 15.773438 19.691406 15.742188 C 19.695312 15.707031 19.710938 15.683594 19.722656 15.683594 C 19.730469 15.683594 19.746094 15.648438 19.753906 15.605469 C 19.757812 15.5625 19.773438 15.527344 19.78125 15.527344 C 19.792969 15.527344 19.804688 15.492188 19.8125 15.453125 C 19.820312 15.410156 19.832031 15.375 19.84375 15.375 C 19.851562 15.375 19.859375 15.355469 19.859375 15.328125 C 19.859375 15.304688 19.875 15.257812 19.890625 15.226562 C 19.90625 15.195312 19.917969 15.140625 19.917969 15.101562 C 19.921875 15.0625 19.929688 15.027344 19.9375 15.023438 C 19.988281 15.003906 20 14.371094 20 11.0625 L 20 7.648438 L 18.800781 7.648438 L 18.796875 7.921875 M 7.558594 9.671875 C 7.558594 9.683594 8.960938 9.691406 11.648438 9.691406 C 14.375 9.691406 15.738281 9.683594 15.738281 9.671875 C 15.738281 9.660156 14.375 9.652344 11.648438 9.652344 C 8.960938 9.652344 7.558594 9.660156 7.558594 9.671875 M 5.710938 18.003906 C 5.695312 18.050781 5.699219 19.308594 5.714844 19.332031 C 5.722656 19.34375 5.773438 19.375 5.828125 19.402344 C 5.886719 19.425781 5.933594 19.453125 5.941406 19.460938 C 5.945312 19.46875 5.96875 19.480469 5.996094 19.484375 C 6.019531 19.492188 6.039062 19.507812 6.039062 19.515625 C 6.039062 19.523438 6.066406 19.539062 6.101562 19.546875 C 6.132812 19.550781 6.160156 19.566406 6.160156 19.574219 C 6.160156 19.582031 6.175781 19.59375 6.195312 19.601562 C 6.234375 19.613281 6.304688 19.652344 6.320312 19.671875 C 6.324219 19.679688 6.351562 19.691406 6.378906 19.699219 C 6.40625 19.707031 6.433594 19.71875 6.441406 19.726562 C 6.460938 19.753906 6.597656 19.824219 6.625 19.824219 C 6.640625 19.824219 6.660156 19.835938 6.667969 19.855469 C 6.671875 19.871094 6.691406 19.882812 6.710938 19.882812 C 6.726562 19.882812 6.738281 19.890625 6.738281 19.898438 C 6.742188 19.90625 6.761719 19.921875 6.785156 19.933594 C 6.863281 19.96875 7.007812 20.046875 7.019531 20.058594 C 7.027344 20.066406 7.050781 20.074219 7.074219 20.082031 C 7.101562 20.089844 7.121094 20.105469 7.121094 20.113281 C 7.121094 20.121094 7.148438 20.136719 7.179688 20.144531 C 7.214844 20.148438 7.238281 20.164062 7.238281 20.171875 C 7.238281 20.179688 7.261719 20.191406 7.289062 20.199219 C 7.316406 20.207031 7.339844 20.21875 7.339844 20.230469 C 7.339844 20.238281 7.351562 20.25 7.371094 20.25 C 7.386719 20.25 7.398438 20.257812 7.398438 20.265625 C 7.398438 20.277344 7.425781 20.289062 7.460938 20.296875 C 7.492188 20.304688 7.519531 20.316406 7.519531 20.328125 C 7.519531 20.335938 7.527344 20.34375 7.539062 20.34375 C 7.585938 20.34375 7.554688 18.972656 7.511719 18.949219 C 7.488281 18.9375 7.464844 18.921875 7.460938 18.917969 C 7.453125 18.910156 7.429688 18.898438 7.402344 18.890625 C 7.375 18.882812 7.339844 18.863281 7.324219 18.847656 C 7.308594 18.835938 7.285156 18.824219 7.269531 18.824219 C 7.253906 18.824219 7.238281 18.816406 7.238281 18.804688 C 7.238281 18.796875 7.214844 18.78125 7.179688 18.773438 C 7.148438 18.769531 7.121094 18.753906 7.121094 18.746094 C 7.121094 18.734375 7.097656 18.722656 7.070312 18.714844 C 7.042969 18.707031 7.019531 18.695312 7.019531 18.6875 C 7.019531 18.675781 7.007812 18.667969 6.988281 18.667969 C 6.972656 18.667969 6.960938 18.660156 6.960938 18.652344 C 6.960938 18.640625 6.9375 18.628906 6.910156 18.621094 C 6.882812 18.617188 6.859375 18.601562 6.859375 18.59375 C 6.859375 18.582031 6.832031 18.570312 6.800781 18.5625 C 6.765625 18.554688 6.738281 18.542969 6.738281 18.535156 C 6.738281 18.527344 6.71875 18.511719 6.691406 18.507812 C 6.664062 18.5 6.640625 18.488281 6.640625 18.476562 C 6.640625 18.46875 6.613281 18.453125 6.578125 18.445312 C 6.546875 18.441406 6.519531 18.425781 6.519531 18.417969 C 6.519531 18.40625 6.507812 18.398438 6.492188 18.398438 C 6.476562 18.398438 6.460938 18.390625 6.457031 18.382812 C 6.445312 18.359375 6.308594 18.285156 6.273438 18.285156 C 6.253906 18.285156 6.238281 18.277344 6.238281 18.269531 C 6.238281 18.261719 6.199219 18.230469 6.144531 18.207031 C 6.09375 18.179688 6.039062 18.148438 6.023438 18.132812 C 6.007812 18.121094 5.984375 18.109375 5.96875 18.109375 C 5.953125 18.109375 5.941406 18.101562 5.941406 18.089844 C 5.941406 18.082031 5.925781 18.070312 5.910156 18.070312 C 5.894531 18.070312 5.878906 18.0625 5.878906 18.054688 C 5.878906 18.046875 5.859375 18.03125 5.828125 18.023438 C 5.800781 18.019531 5.78125 18.003906 5.78125 17.992188 C 5.78125 17.964844 5.726562 17.972656 5.710938 18.003906 "/>
<path style=" stroke:none;fill-rule:evenodd;fill:rgb(92.54902%,54.901961%,29.803922%);fill-opacity:1;" d="M 4.488281 0.234375 C 4.484375 0.261719 4.480469 0.800781 4.484375 1.433594 L 4.492188 2.589844 L 4.5 0.230469 L 5.089844 0.230469 C 5.46875 0.230469 5.679688 0.222656 5.679688 0.210938 C 5.679688 0.199219 5.46875 0.191406 5.089844 0.191406 L 4.5 0.191406 L 4.488281 0.234375 M 4.484375 5.1875 L 4.480469 6.492188 L 2.265625 6.496094 L 0.0507812 6.503906 L 2.265625 6.507812 C 4.023438 6.511719 4.484375 6.507812 4.492188 6.488281 C 4.496094 6.472656 4.496094 5.882812 4.496094 5.171875 L 4.488281 3.882812 L 4.484375 5.1875 M 9.285156 6.507812 C 11.253906 6.511719 14.464844 6.511719 16.425781 6.507812 C 18.386719 6.503906 16.777344 6.503906 12.851562 6.503906 C 8.921875 6.503906 7.320312 6.503906 9.285156 6.507812 M 19.988281 7.128906 C 19.988281 7.398438 19.992188 7.507812 19.996094 7.375 C 20 7.238281 20 7.019531 19.996094 6.882812 C 19.992188 6.746094 19.988281 6.859375 19.988281 7.128906 M 0.00390625 7.171875 C 0 7.410156 0.0078125 7.613281 0.015625 7.617188 C 0.0234375 7.621094 0.0273438 7.496094 0.0234375 7.332031 C 0.015625 6.789062 0.0078125 6.734375 0.00390625 7.171875 M 2.839844 7.644531 L 4.480469 7.648438 L 4.484375 12.46875 L 4.488281 17.292969 L 4.488281 7.640625 L 2.84375 7.640625 L 1.199219 7.636719 L 2.839844 7.644531 M 8.953125 7.644531 C 10.757812 7.648438 13.71875 7.648438 15.535156 7.644531 C 17.347656 7.640625 15.867188 7.640625 12.25 7.640625 C 8.632812 7.640625 7.148438 7.640625 8.953125 7.644531 M 7.585938 15.03125 C 7.582031 17.964844 7.585938 20.363281 7.59375 20.363281 C 7.609375 20.363281 7.609375 16.78125 7.59375 11.628906 C 7.59375 10.566406 7.585938 12.101562 7.585938 15.03125 M 8.78125 10.859375 C 8.78125 10.875 10.753906 10.875 13.480469 10.859375 C 14.046875 10.859375 13.222656 10.855469 11.644531 10.851562 C 10.070312 10.847656 8.78125 10.851562 8.78125 10.859375 M 15.28125 18.761719 C 15.261719 18.785156 15.238281 18.796875 15.230469 18.789062 C 15.226562 18.78125 15.21875 18.789062 15.21875 18.800781 C 15.21875 18.832031 15.242188 18.828125 15.308594 18.773438 C 15.34375 18.75 15.359375 18.726562 15.34375 18.726562 C 15.332031 18.726562 15.304688 18.742188 15.28125 18.761719 M 4.929688 18.898438 C 4.953125 18.9375 5.019531 18.960938 5.007812 18.929688 C 5 18.914062 4.988281 18.90625 4.976562 18.910156 C 4.96875 18.917969 4.960938 18.914062 4.960938 18.902344 C 4.960938 18.890625 4.949219 18.878906 4.9375 18.878906 C 4.925781 18.878906 4.921875 18.890625 4.929688 18.898438 M 14.601562 19.144531 C 14.574219 19.171875 14.574219 19.175781 14.605469 19.164062 C 14.628906 19.15625 14.648438 19.152344 14.652344 19.152344 C 14.65625 19.152344 14.660156 19.140625 14.660156 19.132812 C 14.660156 19.101562 14.632812 19.109375 14.601562 19.144531 M 8.523438 20.867188 C 8.535156 20.898438 8.578125 20.914062 8.578125 20.886719 C 8.578125 20.878906 8.566406 20.863281 8.546875 20.859375 C 8.527344 20.851562 8.519531 20.855469 8.523438 20.867188 "/>
<path style=" stroke:none;fill-rule:evenodd;fill:rgb(98.823529%,42.352941%,1.568627%);fill-opacity:1;" d="M 4.511719 0.242188 C 4.507812 0.25 4.5 1.664062 4.5 3.382812 L 4.5 6.511719 L 0.0585938 6.511719 L 0.0585938 6.558594 C 0.0585938 6.585938 0.0546875 6.609375 0.0429688 6.613281 C 0.0351562 6.613281 0.03125 6.839844 0.0351562 7.113281 L 0.0429688 7.609375 L 4.5 7.609375 L 4.5 18.613281 L 4.609375 18.679688 C 4.667969 18.714844 4.722656 18.746094 4.730469 18.746094 C 4.738281 18.746094 4.808594 18.785156 4.890625 18.832031 C 4.96875 18.878906 5.042969 18.917969 5.058594 18.917969 C 5.074219 18.917969 5.078125 18.933594 5.074219 18.945312 C 5.066406 18.964844 5.070312 18.972656 5.089844 18.964844 C 5.105469 18.957031 5.121094 18.964844 5.121094 18.972656 C 5.121094 18.984375 5.132812 18.988281 5.148438 18.984375 C 5.167969 18.976562 5.179688 18.980469 5.179688 18.988281 C 5.179688 19 5.214844 19.023438 5.261719 19.042969 C 5.304688 19.0625 5.339844 19.085938 5.339844 19.097656 C 5.339844 19.105469 5.347656 19.109375 5.355469 19.109375 C 5.386719 19.105469 5.460938 19.136719 5.460938 19.152344 C 5.460938 19.160156 5.472656 19.167969 5.488281 19.167969 C 5.503906 19.167969 5.53125 19.179688 5.542969 19.195312 C 5.558594 19.210938 5.589844 19.226562 5.617188 19.234375 L 5.660156 19.25 L 5.660156 13.460938 C 5.660156 10.277344 5.664062 7.65625 5.671875 7.640625 C 5.683594 7.613281 6.332031 7.609375 12.820312 7.609375 L 19.957031 7.609375 L 19.964844 7.074219 C 19.96875 6.730469 19.964844 6.535156 19.949219 6.527344 C 19.9375 6.519531 16.726562 6.511719 12.808594 6.511719 C 6.332031 6.511719 5.683594 6.507812 5.671875 6.480469 C 5.664062 6.464844 5.660156 5.050781 5.660156 3.339844 L 5.660156 0.230469 L 5.09375 0.230469 C 4.78125 0.230469 4.519531 0.238281 4.511719 0.242188 M 7.601562 15.011719 L 7.601562 20.316406 L 7.773438 20.414062 C 7.871094 20.46875 7.972656 20.527344 8 20.539062 C 8.027344 20.550781 8.054688 20.566406 8.058594 20.574219 C 8.070312 20.585938 8.128906 20.621094 8.261719 20.683594 C 8.296875 20.703125 8.335938 20.726562 8.339844 20.734375 C 8.34375 20.738281 8.371094 20.75 8.394531 20.757812 C 8.417969 20.765625 8.441406 20.777344 8.441406 20.789062 C 8.441406 20.796875 8.46875 20.808594 8.5 20.816406 C 8.53125 20.824219 8.558594 20.835938 8.558594 20.84375 C 8.558594 20.851562 8.597656 20.871094 8.640625 20.890625 C 8.683594 20.914062 8.71875 20.9375 8.71875 20.949219 C 8.71875 20.960938 8.726562 20.960938 8.734375 20.953125 C 8.742188 20.945312 8.753906 18.667969 8.761719 15.886719 L 8.769531 10.835938 L 11.609375 10.832031 C 13.171875 10.828125 14.46875 10.832031 14.496094 10.835938 L 14.539062 10.847656 L 14.539062 15 C 14.539062 17.367188 14.546875 19.152344 14.558594 19.152344 C 14.566406 19.152344 14.585938 19.136719 14.601562 19.121094 C 14.613281 19.105469 14.632812 19.097656 14.640625 19.105469 C 14.652344 19.109375 14.660156 19.105469 14.660156 19.097656 C 14.660156 19.085938 14.675781 19.074219 14.695312 19.066406 C 14.730469 19.054688 14.800781 19.015625 14.820312 18.996094 C 14.824219 18.992188 14.875 18.964844 14.929688 18.9375 C 14.984375 18.910156 15.035156 18.886719 15.039062 18.878906 C 15.058594 18.859375 15.132812 18.820312 15.164062 18.808594 C 15.183594 18.804688 15.199219 18.789062 15.199219 18.777344 C 15.199219 18.769531 15.207031 18.765625 15.210938 18.769531 C 15.21875 18.777344 15.25 18.765625 15.277344 18.746094 C 15.304688 18.726562 15.394531 18.679688 15.46875 18.640625 C 15.546875 18.597656 15.625 18.558594 15.644531 18.546875 C 15.679688 18.527344 15.679688 18.292969 15.679688 14.117188 L 15.679688 9.710938 L 7.601562 9.710938 L 7.601562 15.011719 M 9.761719 13.371094 L 9.761719 13.949219 L 13.5 13.949219 L 13.5 12.792969 L 9.761719 12.792969 L 9.761719 13.371094 M 9.761719 15.933594 L 9.761719 16.511719 L 13.5 16.511719 L 13.5 15.355469 L 9.761719 15.355469 L 9.761719 15.933594 "/>
<path style=" stroke:none;fill-rule:evenodd;fill:rgb(89.411765%,61.176471%,42.352941%);fill-opacity:1;" d="M 5.683594 3.335938 L 5.691406 6.484375 L 12.839844 6.484375 C 16.773438 6.484375 19.671875 6.480469 19.28125 6.472656 C 18.890625 6.464844 15.679688 6.457031 12.144531 6.457031 L 5.71875 6.453125 L 5.714844 4.820312 C 5.710938 3.921875 5.714844 2.515625 5.71875 1.691406 C 5.722656 0.574219 5.71875 0.191406 5.703125 0.191406 C 5.6875 0.191406 5.679688 0.988281 5.683594 3.335938 M 4.488281 3.238281 C 4.488281 3.601562 4.492188 3.75 4.496094 3.570312 C 4.5 3.386719 4.5 3.085938 4.496094 2.90625 C 4.492188 2.722656 4.488281 2.871094 4.488281 3.238281 M 0.644531 6.46875 C 0.210938 6.472656 0.0195312 6.480469 0.0195312 6.496094 C 0.0195312 6.507812 0.0351562 6.511719 0.0507812 6.503906 C 0.0703125 6.496094 1.074219 6.492188 2.28125 6.492188 C 3.734375 6.492188 4.480469 6.484375 4.480469 6.472656 C 4.480469 6.457031 2.457031 6.453125 0.644531 6.46875 M 0 7.632812 C 0 7.640625 0.273438 7.648438 0.605469 7.644531 C 1.210938 7.640625 1.140625 7.632812 0.394531 7.625 C 0.175781 7.621094 0 7.625 0 7.632812 M 19.398438 7.628906 L 18.808594 7.640625 L 19.40625 7.644531 C 19.792969 7.648438 20 7.640625 20 7.628906 C 20 7.617188 19.996094 7.613281 19.996094 7.613281 C 19.992188 7.617188 19.722656 7.625 19.398438 7.628906 M 5.675781 13.480469 C 5.667969 19.457031 5.667969 19.339844 5.695312 19.316406 C 5.71875 19.292969 5.726562 7.648438 5.703125 7.648438 C 5.6875 7.648438 5.679688 9.289062 5.675781 13.480469 M 7.566406 15.03125 C 7.566406 17.96875 7.570312 19.507812 7.574219 18.445312 C 7.589844 13.296875 7.589844 9.691406 7.574219 9.691406 C 7.566406 9.691406 7.5625 12.09375 7.566406 15.03125 M 15.695312 14.128906 C 15.691406 17.082031 15.695312 18.566406 15.710938 18.558594 C 15.738281 18.550781 15.753906 9.691406 15.722656 9.691406 C 15.707031 9.691406 15.699219 10.894531 15.695312 14.128906 M 10.226562 10.878906 C 11.015625 10.882812 12.304688 10.882812 13.085938 10.878906 C 13.871094 10.878906 13.222656 10.875 11.648438 10.875 C 10.078125 10.875 9.4375 10.878906 10.226562 10.878906 M 4.488281 17.964844 C 4.488281 18.335938 4.492188 18.484375 4.496094 18.296875 C 4.5 18.109375 4.5 17.804688 4.496094 17.621094 C 4.492188 17.441406 4.488281 17.59375 4.488281 17.964844 "/>
<path style=" stroke:none;fill-rule:evenodd;fill:rgb(95.686275%,51.372549%,20%);fill-opacity:1;" d="M 5.667969 3.351562 C 5.667969 5.074219 5.671875 5.777344 5.675781 4.917969 C 5.679688 4.058594 5.679688 2.648438 5.675781 1.785156 C 5.671875 0.925781 5.667969 1.628906 5.667969 3.351562 M 0.0351562 6.523438 C 0.0117188 6.542969 0.0195312 6.609375 0.0390625 6.609375 C 0.0507812 6.609375 0.0585938 6.585938 0.0585938 6.558594 C 0.0585938 6.507812 0.0546875 6.503906 0.0351562 6.523438 M 19.960938 7.136719 L 19.960938 7.609375 L 12.816406 7.613281 L 5.671875 7.621094 L 12.824219 7.625 L 19.980469 7.628906 L 19.980469 7.148438 C 19.980469 6.882812 19.976562 6.667969 19.96875 6.667969 C 19.964844 6.667969 19.960938 6.878906 19.960938 7.136719 M 0.03125 7.179688 L 0.03125 7.621094 L 2.265625 7.628906 C 3.496094 7.632812 4.5 7.632812 4.5 7.625 C 4.5 7.617188 3.496094 7.609375 2.269531 7.609375 L 0.0390625 7.609375 L 0.0351562 7.175781 L 0.0273438 6.742188 L 0.03125 7.179688 M 5.664062 13.445312 C 5.660156 18.597656 5.65625 19.25 5.628906 19.238281 C 5.613281 19.234375 5.601562 19.234375 5.601562 19.246094 C 5.601562 19.273438 5.660156 19.285156 5.671875 19.261719 C 5.675781 19.246094 5.679688 16.628906 5.675781 13.4375 L 5.671875 7.640625 L 5.664062 13.445312 M 11.640625 9.707031 L 15.679688 9.710938 L 15.679688 14.113281 C 15.679688 18.289062 15.679688 18.519531 15.644531 18.546875 C 15.625 18.558594 15.621094 18.570312 15.632812 18.570312 C 15.699219 18.574219 15.699219 18.566406 15.695312 14.109375 L 15.691406 9.699219 L 7.601562 9.699219 L 11.640625 9.707031 M 8.769531 10.851562 C 8.746094 10.914062 8.75 20.960938 8.773438 20.960938 C 8.796875 20.960938 8.800781 19.953125 8.796875 15.902344 L 8.789062 10.847656 L 14.5 10.847656 L 14.5 15.027344 C 14.5 17.800781 14.507812 19.207031 14.519531 19.207031 C 14.53125 19.207031 14.539062 19.199219 14.539062 19.191406 C 14.539062 19.179688 14.558594 19.167969 14.578125 19.160156 C 14.597656 19.152344 14.621094 19.132812 14.628906 19.117188 C 14.640625 19.089844 14.636719 19.089844 14.605469 19.117188 C 14.582031 19.136719 14.5625 19.152344 14.554688 19.152344 C 14.546875 19.152344 14.539062 17.28125 14.539062 15 C 14.539062 11.234375 14.535156 10.851562 14.507812 10.839844 C 14.441406 10.8125 8.777344 10.828125 8.769531 10.851562 M 15.550781 18.597656 C 15.523438 18.617188 15.519531 18.628906 15.539062 18.640625 C 15.558594 18.648438 15.5625 18.648438 15.550781 18.632812 C 15.542969 18.621094 15.550781 18.609375 15.570312 18.609375 C 15.585938 18.609375 15.601562 18.601562 15.601562 18.589844 C 15.601562 18.566406 15.59375 18.566406 15.550781 18.597656 M 4.511719 18.636719 C 4.519531 18.652344 4.539062 18.667969 4.5625 18.675781 C 4.613281 18.6875 4.609375 18.679688 4.550781 18.640625 C 4.511719 18.617188 4.503906 18.617188 4.511719 18.636719 M 15.429688 18.660156 C 15.40625 18.675781 15.398438 18.6875 15.410156 18.6875 C 15.441406 18.6875 15.492188 18.652344 15.476562 18.640625 C 15.472656 18.636719 15.449219 18.644531 15.429688 18.660156 M 4.621094 18.707031 C 4.621094 18.71875 4.632812 18.726562 4.648438 18.726562 C 4.664062 18.726562 4.679688 18.738281 4.6875 18.75 C 4.695312 18.769531 4.695312 18.769531 4.699219 18.75 C 4.699219 18.738281 4.683594 18.71875 4.660156 18.707031 C 4.632812 18.695312 4.621094 18.691406 4.621094 18.707031 M 4.734375 18.773438 C 4.726562 18.792969 4.730469 18.796875 4.753906 18.789062 C 4.773438 18.785156 4.792969 18.792969 4.804688 18.808594 C 4.8125 18.828125 4.835938 18.84375 4.855469 18.839844 C 4.886719 18.839844 4.882812 18.835938 4.851562 18.8125 C 4.773438 18.753906 4.746094 18.746094 4.734375 18.773438 M 15.121094 18.832031 C 15.105469 18.847656 15.082031 18.863281 15.066406 18.863281 C 15.050781 18.863281 15.039062 18.871094 15.039062 18.882812 C 15.039062 18.894531 15.050781 18.894531 15.074219 18.882812 C 15.136719 18.847656 15.191406 18.804688 15.167969 18.804688 C 15.15625 18.804688 15.132812 18.816406 15.121094 18.832031 M 4.890625 18.859375 C 4.886719 18.867188 4.902344 18.878906 4.929688 18.886719 C 4.988281 18.894531 4.992188 18.890625 4.941406 18.863281 C 4.917969 18.851562 4.898438 18.847656 4.890625 18.859375 M 5 18.917969 C 5 18.933594 5.046875 18.957031 5.070312 18.957031 C 5.097656 18.957031 5.074219 18.921875 5.039062 18.914062 C 5.019531 18.90625 5 18.910156 5 18.917969 M 14.949219 18.929688 C 14.914062 18.957031 14.914062 18.960938 14.945312 18.949219 C 14.96875 18.945312 14.992188 18.9375 15 18.9375 C 15.011719 18.9375 15.019531 18.929688 15.019531 18.917969 C 15.019531 18.890625 14.992188 18.894531 14.949219 18.929688 M 14.855469 18.972656 C 14.835938 18.976562 14.820312 18.988281 14.820312 18.996094 C 14.820312 19.003906 14.839844 19.007812 14.859375 19 C 14.882812 18.996094 14.898438 18.984375 14.898438 18.976562 C 14.898438 18.964844 14.898438 18.957031 14.894531 18.960938 C 14.890625 18.960938 14.875 18.964844 14.855469 18.972656 M 5.199219 19.035156 C 5.199219 19.046875 5.210938 19.054688 5.226562 19.054688 C 5.242188 19.054688 5.261719 19.066406 5.265625 19.078125 C 5.269531 19.089844 5.28125 19.09375 5.289062 19.085938 C 5.300781 19.078125 5.289062 19.058594 5.269531 19.046875 C 5.222656 19.011719 5.199219 19.007812 5.199219 19.035156 M 14.738281 19.042969 C 14.726562 19.058594 14.703125 19.074219 14.6875 19.074219 C 14.671875 19.074219 14.660156 19.082031 14.660156 19.089844 C 14.660156 19.101562 14.679688 19.105469 14.699219 19.097656 C 14.722656 19.09375 14.738281 19.082031 14.738281 19.070312 C 14.738281 19.0625 14.753906 19.054688 14.769531 19.054688 C 14.785156 19.054688 14.800781 19.046875 14.800781 19.035156 C 14.800781 19.007812 14.769531 19.011719 14.738281 19.042969 M 5.359375 19.101562 C 5.359375 19.117188 5.425781 19.167969 5.441406 19.167969 C 5.476562 19.167969 5.460938 19.140625 5.410156 19.117188 C 5.382812 19.105469 5.359375 19.097656 5.359375 19.101562 M 5.480469 19.1875 C 5.480469 19.195312 5.496094 19.207031 5.519531 19.214844 C 5.566406 19.226562 5.574219 19.199219 5.527344 19.179688 C 5.488281 19.164062 5.480469 19.167969 5.480469 19.1875 M 7.632812 20.363281 C 7.671875 20.398438 7.761719 20.433594 7.761719 20.414062 C 7.761719 20.402344 7.628906 20.324219 7.609375 20.324219 C 7.601562 20.324219 7.609375 20.34375 7.632812 20.363281 M 7.78125 20.441406 C 7.78125 20.453125 7.792969 20.460938 7.8125 20.460938 C 7.828125 20.460938 7.835938 20.46875 7.828125 20.484375 C 7.820312 20.496094 7.824219 20.5 7.835938 20.492188 C 7.867188 20.472656 7.867188 20.464844 7.820312 20.441406 C 7.792969 20.425781 7.78125 20.425781 7.78125 20.441406 M 7.878906 20.5 C 7.878906 20.511719 7.894531 20.519531 7.910156 20.519531 C 7.925781 20.519531 7.941406 20.527344 7.945312 20.542969 C 7.949219 20.558594 7.957031 20.558594 7.964844 20.542969 C 7.972656 20.53125 7.957031 20.515625 7.929688 20.503906 C 7.898438 20.488281 7.878906 20.488281 7.878906 20.5 M 8.160156 20.652344 C 8.160156 20.671875 8.21875 20.699219 8.234375 20.683594 C 8.238281 20.679688 8.226562 20.664062 8.203125 20.652344 C 8.179688 20.640625 8.160156 20.640625 8.160156 20.652344 M 8.261719 20.710938 C 8.261719 20.71875 8.277344 20.730469 8.300781 20.734375 C 8.320312 20.742188 8.339844 20.738281 8.339844 20.730469 C 8.339844 20.722656 8.320312 20.710938 8.300781 20.707031 C 8.277344 20.699219 8.261719 20.703125 8.261719 20.710938 M 8.359375 20.765625 C 8.359375 20.777344 8.378906 20.789062 8.398438 20.792969 C 8.445312 20.804688 8.453125 20.777344 8.410156 20.761719 C 8.367188 20.746094 8.359375 20.746094 8.359375 20.765625 M 8.480469 20.828125 C 8.480469 20.835938 8.496094 20.847656 8.519531 20.851562 C 8.542969 20.855469 8.558594 20.855469 8.558594 20.847656 C 8.558594 20.839844 8.542969 20.828125 8.519531 20.820312 C 8.496094 20.816406 8.480469 20.816406 8.480469 20.828125 M 8.578125 20.882812 C 8.578125 20.894531 8.59375 20.902344 8.609375 20.902344 C 8.625 20.902344 8.640625 20.914062 8.644531 20.929688 C 8.652344 20.941406 8.660156 20.945312 8.671875 20.9375 C 8.679688 20.929688 8.667969 20.910156 8.648438 20.894531 C 8.601562 20.859375 8.578125 20.859375 8.578125 20.882812 "/>
</g>
</svg>
